ply
format ascii 1.0
element vertex 360
property float x
property float y
property float z
property float nx
property float ny
property float nz
property uchar red
property uchar green
property uchar blue
property uchar alpha
property float s
property float t
element face 350
property list uchar uint vertex_indices
end_header
0.10000011 1.75 -7.549788e-09 0.7914045 -0.611293 -5.9749375e-08 0 254 0 255 0.25 0.49
1.3013714e-07 2.25 6.31489e-17 9.024603e-08 1 -2.3267331e-08 0 254 0 255 0.25 0.25
0.09807864 1.75 0.019509025 0.77619785 -0.611293 0.15439533 0 254 0 255 0.29682168 0.48538846
0.09238806 1.75 0.03826834 0.73116237 -0.6112931 0.30285734 0 254 0 255 0.34184402 0.47173107
0.08314708 1.75 0.055557016 0.65802866 -0.6112932 0.43968052 0 254 0 255 0.38333684 0.44955269
0.0707108 1.75 0.070710674 0.55960757 -0.61129284 0.55960745 0 254 0 255 0.41970563 0.41970563
0.05555714 1.75 0.08314695 0.4396806 -0.6112931 0.65802854 0 254 0 255 0.44955269 0.38333684
0.03826846 1.75 0.09238795 0.30285743 -0.611293 0.73116237 0 254 0 255 0.47173107 0.34184402
0.019509148 1.75 0.09807853 0.15439542 -0.6112931 0.7761977 0 254 0 255 0.48538846 0.29682168
1.15831234e-07 1.75 0.1 3.302891e-08 -0.61129296 0.7914045 0 254 0 255 0.49 0.25
-0.019508917 1.75 0.09807853 -0.15439506 -0.61129177 0.7761987 0 254 0 255 0.48538846 0.20317832
-0.03826823 1.75 0.09238795 -0.30285737 -0.611293 0.73116237 0 254 0 255 0.47173107 0.15815598
-0.05555691 1.75 0.08314697 -0.4396805 -0.6112931 0.65802866 0 254 0 255 0.44955269 0.11666316
-0.07071056 1.75 0.07071069 -0.55960745 -0.6112928 0.55960757 0 254 0 255 0.41970563 0.08029437
-0.08314684 1.75 0.05555703 -0.65802854 -0.6112931 0.43968064 0 254 0 255 0.38333684 0.050447315
-0.09238784 1.75 0.038268354 -0.73116237 -0.61129296 0.30285746 0 254 0 255 0.34184402 0.028268933
-0.098078415 1.75 0.01950904 -0.77619785 -0.6112929 0.15439554 0 254 0 255 0.29682168 0.014611557
-0.09999989 1.75 7.549792e-09 -0.7914045 -0.6112929 5.9749375e-08 0 254 0 255 0.25 0.010000005
-0.098078415 1.75 -0.019509025 -0.77619785 -0.6112929 -0.15439533 0 254 0 255 0.20317832 0.014611557
-0.09238784 1.75 -0.03826834 -0.73116237 -0.61129296 -0.30285734 0 254 0 255 0.15815598 0.028268933
-0.083146855 1.75 -0.055557016 -0.65802866 -0.6112932 -0.43968052 0 254 0 255 0.11666316 0.050447315
-0.07071058 1.75 -0.070710674 -0.55960757 -0.61129284 -0.55960745 0 254 0 255 0.08029437 0.08029437
-0.055556923 1.75 -0.08314695 -0.43968067 -0.6112931 -0.65802854 0 254 0 255 0.050447315 0.11666316
-0.038268246 1.75 -0.09238795 -0.3028575 -0.611293 -0.73116237 0 254 0 255 0.028268933 0.15815598
-0.019508932 1.75 -0.09807853 -0.15439548 -0.6112931 -0.7761977 0 254 0 255 0.014611557 0.20317832
1.00731654e-07 1.75 -0.1 -8.646984e-08 -0.61129296 -0.7914045 0 254 0 255 0.010000005 0.25
0.019509133 1.75 -0.09807853 0.154395 -0.61129177 -0.7761987 0 254 0 255 0.014611557 0.29682168
0.038268447 1.75 -0.09238795 0.3028573 -0.611293 -0.73116237 0 254 0 255 0.028268933 0.34184402
0.055557124 1.75 -0.08314697 0.43968043 -0.6112931 -0.65802866 0 254 0 255 0.050447315 0.38333684
0.070710786 1.75 -0.07071069 0.55960745 -0.6112928 -0.55960757 0 254 0 255 0.08029437 0.41970563
0.083147064 1.75 -0.05555703 0.65802854 -0.6112931 -0.43968064 0 254 0 255 0.11666316 0.44955269
0.09238806 1.75 -0.038268354 0.73116237 -0.6112931 -0.30285746 0 254 0 255 0.15815598 0.47173107
0.055557124 1.75 -0.08314697 0.43968043 -0.6112931 -0.65802866 0 254 0 255 0.55044734 0.38333684
0.09807864 1.75 -0.01950904 0.77619785 -0.611293 -0.15439554 0 254 0 255 0.70317835 0.48538846
-0.098078415 1.75 0.01950904 -0.77619785 -0.6112929 0.15439554 0 254 0 255 0.79682165 0.014611557
0.09807864 1.75 -0.01950904 0.77619785 -0.611293 -0.15439554 0 254 0 255 0.20317832 0.48538846
0.04000012 2 -3.019915e-09 0.7763824 0.63026214 2.443158e-07 0 254 0 255 1 1
0.028284304 0 0.028284268 0.54898554 -0.6302622 0.54898494 0 254 0 255 0.875 0.5
0.040000033 0 -3.0199083e-09 0.7763824 -0.6302622 -3.6603046e-07 0 254 0 255 1 0.5
0.028284391 2 0.028284268 0.54898506 0.63026214 0.5489855 0 254 0 255 0.875 1
3.4806426e-08 0 0.04 4.0200666e-07 -0.63026214 0.77638245 0 254 0 255 0.75 0.5
1.2222921e-07 2 0.04 -2.8054106e-07 0.63026214 0.7763824 0 254 0 255 0.75 1
-0.028284237 0 0.028284272 -0.548985 -0.63026226 0.54898554 0 254 0 255 0.625 0.5
-0.02828415 2 0.028284272 -0.5489855 0.63026214 0.5489851 0 254 0 255 0.625 1
-0.039999966 0 3.0199234e-09 -0.7763824 -0.6302621 3.6603046e-07 0 254 0 255 0.5 0.5
-0.03999988 2 3.0199168e-09 -0.7763824 0.63026226 -2.443158e-07 0 254 0 255 0.5 1
-0.02828424 0 -0.028284268 -0.54898554 -0.6302622 -0.54898494 0 254 0 255 0.375 0.5
-0.028284153 2 -0.028284268 -0.54898506 0.63026214 -0.5489855 0 254 0 255 0.375 1
2.87666e-08 0 -0.04 -4.5710595e-07 -0.63026214 -0.77638245 0 254 0 255 0.25 0.5
1.16189376e-07 2 -0.04 3.3564035e-07 0.63026214 -0.7763824 0 254 0 255 0.010000005 0.25
-0.03999988 2 3.0199168e-09 -0.7763824 0.63026226 -2.443158e-07 0 254 0 255 0.25 0.010000005
1.2222921e-07 2 0.04 -2.8054106e-07 0.63026214 0.7763824 0 254 0 255 0.49 0.25
1.16189376e-07 2 -0.04 3.3564035e-07 0.63026214 -0.7763824 0 254 0 255 0.25 1
0.0282843 0 -0.028284272 0.548985 -0.63026226 -0.54898554 0 254 0 255 0.125 0.5
0.028284388 2 -0.028284272 0.5489855 0.63026214 -0.5489851 0 254 0 255 0.125 1
0.040000033 0 -3.0199083e-09 0.7763824 -0.6302622 -3.6603046e-07 0 254 0 255 0 0.5
-0.028284237 0 0.028284272 -0.548985 -0.63026226 0.54898554 0 254 0 255 0.9197056 0.08029437
-0.02828424 0 -0.028284268 -0.54898554 -0.6302622 -0.54898494 0 254 0 255 0.5802944 0.08029437
0.0282843 0 -0.028284272 0.548985 -0.63026226 -0.54898554 0 254 0 255 0.5802944 0.41970563
0.10000011 1.75 -7.549788e-09 0.7914045 -0.611293 -5.9749375e-08 0 254 0 255 0.75 0.49
0.09807864 1.75 0.019509025 0.77619785 -0.611293 0.15439533 0 254 0 255 0.79682165 0.48538846
0.09238806 1.75 0.03826834 0.73116237 -0.6112931 0.30285734 0 254 0 255 0.841844 0.47173107
0.08314708 1.75 0.055557016 0.65802866 -0.6112932 0.43968052 0 254 0 255 0.88333684 0.44955269
0.0707108 1.75 0.070710674 0.55960757 -0.61129284 0.55960745 0 254 0 255 0.9197056 0.41970563
0.05555714 1.75 0.08314695 0.4396806 -0.6112931 0.65802854 0 254 0 255 0.94955266 0.38333684
0.03826846 1.75 0.09238795 0.30285743 -0.611293 0.73116237 0 254 0 255 0.97173107 0.34184402
0.019509148 1.75 0.09807853 0.15439542 -0.6112931 0.7761977 0 254 0 255 0.98538846 0.29682168
1.15831234e-07 1.75 0.1 3.302891e-08 -0.61129296 0.7914045 0 254 0 255 0.99 0.25
-0.019508917 1.75 0.09807853 -0.15439506 -0.61129177 0.7761987 0 254 0 255 0.98538846 0.20317832
-0.03826823 1.75 0.09238795 -0.30285737 -0.611293 0.73116237 0 254 0 255 0.97173107 0.15815598
-0.05555691 1.75 0.08314697 -0.4396805 -0.6112931 0.65802866 0 254 0 255 0.94955266 0.11666316
-0.07071056 1.75 0.07071069 -0.55960745 -0.6112928 0.55960757 0 254 0 255 0.9197056 0.08029437
-0.08314684 1.75 0.05555703 -0.65802854 -0.6112931 0.43968064 0 254 0 255 0.88333684 0.050447315
-0.09238784 1.75 0.038268354 -0.73116237 -0.61129296 0.30285746 0 254 0 255 0.841844 0.028268933
-0.09999989 1.75 7.549792e-09 -0.7914045 -0.6112929 5.9749375e-08 0 254 0 255 0.75 0.010000005
-0.098078415 1.75 -0.019509025 -0.77619785 -0.6112929 -0.15439533 0 254 0 255 0.70317835 0.014611557
-0.09238784 1.75 -0.03826834 -0.73116237 -0.61129296 -0.30285734 0 254 0 255 0.658156 0.028268933
-0.083146855 1.75 -0.055557016 -0.65802866 -0.6112932 -0.43968052 0 254 0 255 0.61666316 0.050447315
-0.07071058 1.75 -0.070710674 -0.55960757 -0.61129284 -0.55960745 0 254 0 255 0.5802944 0.08029437
-0.055556923 1.75 -0.08314695 -0.43968067 -0.6112931 -0.65802854 0 254 0 255 0.55044734 0.11666316
-0.038268246 1.75 -0.09238795 -0.3028575 -0.611293 -0.73116237 0 254 0 255 0.52826893 0.15815598
-0.019508932 1.75 -0.09807853 -0.15439548 -0.6112931 -0.7761977 0 254 0 255 0.51461154 0.20317832
1.00731654e-07 1.75 -0.1 -8.646984e-08 -0.61129296 -0.7914045 0 254 0 255 0.51 0.25
0.019509133 1.75 -0.09807853 0.154395 -0.61129177 -0.7761987 0 254 0 255 0.51461154 0.29682168
0.038268447 1.75 -0.09238795 0.3028573 -0.611293 -0.73116237 0 254 0 255 0.52826893 0.34184402
0.070710786 1.75 -0.07071069 0.55960745 -0.6112928 -0.55960757 0 254 0 255 0.5802944 0.41970563
0.083147064 1.75 -0.05555703 0.65802854 -0.6112931 -0.43968064 0 254 0 255 0.61666316 0.44955269
0.09238806 1.75 -0.038268354 0.73116237 -0.6112931 -0.30285746 0 254 0 255 0.658156 0.47173107
0.028284391 2 0.028284268 0.54898506 0.63026214 0.5489855 0 254 0 255 0.41970563 0.41970563
0.04000012 2 -3.019915e-09 0.7763824 0.63026214 2.443158e-07 0 254 0 255 0.25 0.49
0.028284388 2 -0.028284272 0.5489855 0.63026214 -0.5489851 0 254 0 255 0.08029437 0.41970563
-0.028284153 2 -0.028284268 -0.54898506 0.63026214 -0.5489855 0 254 0 255 0.08029437 0.08029437
-0.02828415 2 0.028284272 -0.5489855 0.63026214 0.5489851 0 254 0 255 0.41970563 0.08029437
0.04000012 2 -3.019915e-09 0.7763824 0.63026214 2.443158e-07 0 254 0 255 0 1
0.040000033 0 -3.0199083e-09 0.7763824 -0.6302622 -3.6603046e-07 0 254 0 255 0.75 0.49
0.028284304 0 0.028284268 0.54898554 -0.6302622 0.54898494 0 254 0 255 0.9197056 0.41970563
3.4806426e-08 0 0.04 4.0200666e-07 -0.63026214 0.77638245 0 254 0 255 0.99 0.25
-0.039999966 0 3.0199234e-09 -0.7763824 -0.6302621 3.6603046e-07 0 254 0 255 0.75 0.010000005
2.87666e-08 0 -0.04 -4.5710595e-07 -0.63026214 -0.77638245 0 254 0 255 0.51 0.25
2.9802322e-08 0.10000002 1.75 7.28718e-08 0.7914045 -0.61129296 0 0 254 255 0.25 0.49
-2.9802322e-08 1.4901161e-08 2.25 -1.4247661e-07 4.6534648e-08 1 0 0 254 255 0.25 0.25
0.019509062 0.09807854 1.75 0.15439546 0.77619785 -0.61129296 0 0 254 255 0.29682168 0.48538846
0.038268376 0.09238797 1.75 0.30285746 0.73116237 -0.61129296 0 0 254 255 0.34184402 0.47173107
0.055557054 0.083146974 1.75 0.43968064 0.6580286 -0.61129314 0 0 254 255 0.38333684 0.44955269
0.07071071 0.0707107 1.75 0.55960757 0.5596075 -0.6112928 0 0 254 255 0.41970563 0.41970563
0.08314699 0.05555704 1.75 0.65802866 0.43968058 -0.611293 0 0 254 255 0.44955269 0.38333684
0.09238798 0.03826836 1.75 0.7311624 0.3028574 -0.61129296 0 0 254 255 0.47173107 0.34184402
0.09807856 0.019509047 1.75 0.77619773 0.15439539 -0.61129296 0 0 254 255 0.48538846 0.29682168
0.10000003 1.4901161e-08 1.75 0.79140455 0 -0.61129284 0 0 254 255 0.49 0.25
0.09807856 -0.019509017 1.75 0.77619874 -0.15439509 -0.61129165 0 0 254 255 0.48538846 0.20317832
0.09238798 -0.03826833 1.75 0.7311624 -0.3028574 -0.61129296 0 0 254 255 0.47173107 0.15815598
0.08314699 -0.05555701 1.75 0.65802866 -0.43968052 -0.611293 0 0 254 255 0.44955269 0.11666316
0.07071071 -0.07071067 1.75 0.55960757 -0.5596075 -0.6112927 0 0 254 255 0.41970563 0.08029437
0.055557054 -0.083146945 1.75 0.43968064 -0.6580286 -0.611293 0 0 254 255 0.38333684 0.050447315
0.038268376 -0.09238794 1.75 0.30285746 -0.73116237 -0.61129296 0 0 254 255 0.34184402 0.028268933
0.019509062 -0.09807851 1.75 0.15439555 -0.77619785 -0.61129296 0 0 254 255 0.29682168 0.014611557
2.9802322e-08 -0.09999999 1.75 7.28718e-08 -0.7914045 -0.61129296 0 0 254 255 0.25 0.010000005
-0.019509003 -0.09807851 1.75 -0.15439531 -0.77619785 -0.61129296 0 0 254 255 0.20317832 0.014611557
-0.038268317 -0.09238794 1.75 -0.30285734 -0.73116237 -0.6112931 0 0 254 255 0.15815598 0.028268933
-0.055556994 -0.083146945 1.75 -0.43968052 -0.6580286 -0.61129326 0 0 254 255 0.11666316 0.050447315
-0.07071065 -0.07071067 1.75 -0.55960745 -0.5596075 -0.6112929 0 0 254 255 0.08029437 0.08029437
-0.08314693 -0.05555701 1.75 -0.65802854 -0.43968058 -0.61129314 0 0 254 255 0.050447315 0.11666316
-0.09238792 -0.03826833 1.75 -0.7311623 -0.3028574 -0.6112931 0 0 254 255 0.028268933 0.15815598
-0.0980785 -0.019509017 1.75 -0.7761976 -0.15439539 -0.6112932 0 0 254 255 0.014611557 0.20317832
-0.09999997 1.4901161e-08 1.75 -0.7914044 0 -0.6112931 0 0 254 255 0.010000005 0.25
-0.0980785 0.019509047 1.75 -0.7761986 0.15439509 -0.6112919 0 0 254 255 0.014611557 0.29682168
-0.09238792 0.03826836 1.75 -0.7311623 0.3028574 -0.6112931 0 0 254 255 0.028268933 0.34184402
-0.08314693 0.05555704 1.75 -0.65802854 0.43968052 -0.61129314 0 0 254 255 0.050447315 0.38333684
-0.07071065 0.0707107 1.75 -0.55960745 0.5596075 -0.61129284 0 0 254 255 0.08029437 0.41970563
-0.055556994 0.083146974 1.75 -0.43968052 0.6580286 -0.61129314 0 0 254 255 0.11666316 0.44955269
-0.038268317 0.09238797 1.75 -0.30285734 0.73116237 -0.6112931 0 0 254 255 0.15815598 0.47173107
-0.08314693 0.05555704 1.75 -0.65802854 0.43968052 -0.61129314 0 0 254 255 0.55044734 0.38333684
-0.019509003 0.09807854 1.75 -0.1543954 0.77619785 -0.61129296 0 0 254 255 0.70317835 0.48538846
0.019509062 -0.09807851 1.75 0.15439555 -0.77619785 -0.61129296 0 0 254 255 0.79682165 0.014611557
-0.019509003 0.09807854 1.75 -0.1543954 0.77619785 -0.61129296 0 0 254 255 0.20317832 0.48538846
-7.54979e-08 0.040000014 2 2.277979e-07 0.7763824 0.63026214 0 0 254 255 1 1
0.028284432 0.028284285 0 0.5489851 0.5489855 -0.6302622 0 0 254 255 0.875 0.5
1.6292068e-07 0.040000014 0 -2.0039462e-07 0.77638245 -0.63026214 0 0 254 255 1 0.5
0.028284194 0.028284285 2 0.5489855 0.5489851 0.6302622 0 0 254 255 0.875 1
0.040000163 1.4901161e-08 0 0.77638257 2.6008226e-07 -0.630262 0 0 254 255 0.75 0.5
0.039999925 1.4901161e-08 2 0.7763823 -2.5509982e-07 0.6302623 0 0 254 255 0.75 1
0.028284432 -0.028284255 0 0.5489855 -0.54898506 -0.6302622 0 0 254 255 0.625 0.5
0.028284194 -0.028284255 2 0.548985 -0.54898554 0.6302622 0 0 254 255 0.625 1
1.6292068e-07 -0.039999984 0 3.8279742e-07 -0.77638245 -0.63026214 0 0 254 255 0.5 0.5
-7.54979e-08 -0.039999984 2 -3.4617662e-07 -0.7763824 0.63026214 0 0 254 255 0.5 1
-0.028284108 -0.028284255 0 -0.548985 -0.5489855 -0.63026226 0 0 254 255 0.375 0.5
-0.028284347 -0.028284255 2 -0.5489856 -0.548985 0.6302621 0 0 254 255 0.375 1
-0.039999835 1.4901161e-08 0 -0.7763824 -3.2310984e-07 -0.63026226 0 0 254 255 0.25 0.5
-0.040000074 1.4901161e-08 2 -0.7763825 3.1887478e-07 0.630262 0 0 254 255 0.010000005 0.25
-7.54979e-08 -0.039999984 2 -3.4617662e-07 -0.7763824 0.63026214 0 0 254 255 0.25 0.010000005
0.039999925 1.4901161e-08 2 0.7763823 -2.5509982e-07 0.6302623 0 0 254 255 0.49 0.25
-0.040000074 1.4901161e-08 2 -0.7763825 3.1887478e-07 0.630262 0 0 254 255 0.25 1
-0.028284108 0.028284285 0 -0.5489854 0.54898506 -0.63026226 0 0 254 255 0.125 0.5
-0.028284347 0.028284285 2 -0.5489851 0.54898554 0.6302621 0 0 254 255 0.125 1
1.6292068e-07 0.040000014 0 -2.0039462e-07 0.77638245 -0.63026214 0 0 254 255 0 0.5
-0.028284108 0.028284285 0 -0.5489854 0.54898506 -0.63026226 0 0 254 255 0.5802944 0.41970563
0.028284432 0.028284285 0 0.5489851 0.5489855 -0.6302622 0 0 254 255 0.9197056 0.41970563
0.028284432 -0.028284255 0 0.5489855 -0.54898506 -0.6302622 0 0 254 255 0.9197056 0.08029437
2.9802322e-08 0.10000002 1.75 7.28718e-08 0.7914045 -0.61129296 0 0 254 255 0.75 0.49
0.019509062 0.09807854 1.75 0.15439546 0.77619785 -0.61129296 0 0 254 255 0.79682165 0.48538846
0.038268376 0.09238797 1.75 0.30285746 0.73116237 -0.61129296 0 0 254 255 0.841844 0.47173107
0.055557054 0.083146974 1.75 0.43968064 0.6580286 -0.61129314 0 0 254 255 0.88333684 0.44955269
0.07071071 0.0707107 1.75 0.55960757 0.5596075 -0.6112928 0 0 254 255 0.9197056 0.41970563
0.08314699 0.05555704 1.75 0.65802866 0.43968058 -0.611293 0 0 254 255 0.94955266 0.38333684
0.09238798 0.03826836 1.75 0.7311624 0.3028574 -0.61129296 0 0 254 255 0.97173107 0.34184402
0.09807856 0.019509047 1.75 0.77619773 0.15439539 -0.61129296 0 0 254 255 0.98538846 0.29682168
0.10000003 1.4901161e-08 1.75 0.79140455 0 -0.61129284 0 0 254 255 0.99 0.25
0.09807856 -0.019509017 1.75 0.77619874 -0.15439509 -0.61129165 0 0 254 255 0.98538846 0.20317832
0.09238798 -0.03826833 1.75 0.7311624 -0.3028574 -0.61129296 0 0 254 255 0.97173107 0.15815598
0.08314699 -0.05555701 1.75 0.65802866 -0.43968052 -0.611293 0 0 254 255 0.94955266 0.11666316
0.07071071 -0.07071067 1.75 0.55960757 -0.5596075 -0.6112927 0 0 254 255 0.9197056 0.08029437
0.055557054 -0.083146945 1.75 0.43968064 -0.6580286 -0.611293 0 0 254 255 0.88333684 0.050447315
0.038268376 -0.09238794 1.75 0.30285746 -0.73116237 -0.61129296 0 0 254 255 0.841844 0.028268933
2.9802322e-08 -0.09999999 1.75 7.28718e-08 -0.7914045 -0.61129296 0 0 254 255 0.75 0.010000005
-0.019509003 -0.09807851 1.75 -0.15439531 -0.77619785 -0.61129296 0 0 254 255 0.70317835 0.014611557
-0.038268317 -0.09238794 1.75 -0.30285734 -0.73116237 -0.6112931 0 0 254 255 0.658156 0.028268933
-0.055556994 -0.083146945 1.75 -0.43968052 -0.6580286 -0.61129326 0 0 254 255 0.61666316 0.050447315
-0.07071065 -0.07071067 1.75 -0.55960745 -0.5596075 -0.6112929 0 0 254 255 0.5802944 0.08029437
-0.08314693 -0.05555701 1.75 -0.65802854 -0.43968058 -0.61129314 0 0 254 255 0.55044734 0.11666316
-0.09238792 -0.03826833 1.75 -0.7311623 -0.3028574 -0.6112931 0 0 254 255 0.52826893 0.15815598
-0.0980785 -0.019509017 1.75 -0.7761976 -0.15439539 -0.6112932 0 0 254 255 0.51461154 0.20317832
-0.09999997 1.4901161e-08 1.75 -0.7914044 0 -0.6112931 0 0 254 255 0.51 0.25
-0.0980785 0.019509047 1.75 -0.7761986 0.15439509 -0.6112919 0 0 254 255 0.51461154 0.29682168
-0.09238792 0.03826836 1.75 -0.7311623 0.3028574 -0.6112931 0 0 254 255 0.52826893 0.34184402
-0.07071065 0.0707107 1.75 -0.55960745 0.5596075 -0.61129284 0 0 254 255 0.5802944 0.41970563
-0.055556994 0.083146974 1.75 -0.43968052 0.6580286 -0.61129314 0 0 254 255 0.61666316 0.44955269
-0.038268317 0.09238797 1.75 -0.30285734 0.73116237 -0.6112931 0 0 254 255 0.658156 0.47173107
0.028284194 0.028284285 2 0.5489855 0.5489851 0.6302622 0 0 254 255 0.41970563 0.41970563
-7.54979e-08 0.040000014 2 2.277979e-07 0.7763824 0.63026214 0 0 254 255 0.25 0.49
-0.028284347 0.028284285 2 -0.5489851 0.54898554 0.6302621 0 0 254 255 0.08029437 0.41970563
-0.028284347 -0.028284255 2 -0.5489856 -0.548985 0.6302621 0 0 254 255 0.08029437 0.08029437
0.028284194 -0.028284255 2 0.548985 -0.54898554 0.6302622 0 0 254 255 0.41970563 0.08029437
-7.54979e-08 0.040000014 2 2.277979e-07 0.7763824 0.63026214 0 0 254 255 0 1
1.6292068e-07 0.040000014 0 -2.0039462e-07 0.77638245 -0.63026214 0 0 254 255 0.75 0.49
0.040000163 1.4901161e-08 0 0.77638257 2.6008226e-07 -0.630262 0 0 254 255 0.99 0.25
1.6292068e-07 -0.039999984 0 3.8279742e-07 -0.77638245 -0.63026214 0 0 254 255 0.75 0.010000005
-0.028284108 -0.028284255 0 -0.548985 -0.5489855 -0.63026226 0 0 254 255 0.5802944 0.08029437
-0.039999835 1.4901161e-08 0 -0.7763824 -3.2310984e-07 -0.63026226 0 0 254 255 0.51 0.25
2 -0.040000383 -4.569558e-08 0.63026196 -0.77638257 2.5534757e-07 254 0 0 255 1 1
-5.9604645e-08 -0.028284004 0.028284376 -0.6302623 -0.5489853 0.54898506 254 0 0 255 0.875 0.5
-5.9604645e-08 -0.039999735 1.05300224e-07 -0.6302624 -0.7763822 -2.5983172e-07 254 0 0 255 1 0.5
2 -0.028284656 0.028284224 0.630262 -0.5489852 0.5489855 254 0 0 255 0.875 1
-5.9604645e-08 2.6623673e-07 0.040000103 -0.6302621 -1.6557557e-07 0.7763825 254 0 0 255 0.75 0.5
2 -3.8544601e-07 0.039999954 0.6302622 1.6134048e-07 0.7763823 254 0 0 255 0.75 1
-5.9604645e-08 0.028284537 0.028284376 -0.630262 0.54898524 0.54898554 254 0 0 255 0.625 0.5
2 0.028283885 0.028284224 0.6302624 0.54898536 0.548985 254 0 0 255 0.625 1
-5.9604645e-08 0.040000264 1.05300224e-07 -0.6302619 0.77638257 3.5499863e-07 254 0 0 255 0.5 0.5
2 0.039999615 -4.569558e-08 0.63026243 0.7763822 -3.5051454e-07 254 0 0 255 0.5 1
-5.9604645e-08 0.028284537 -0.028284164 -0.6302621 0.54898566 -0.54898494 254 0 0 255 0.375 0.5
2 0.028283885 -0.028284317 0.63026226 0.5489848 -0.5489856 254 0 0 255 0.375 1
-5.9604645e-08 2.6623673e-07 -0.039999895 -0.6302622 5.7630655e-07 -0.7763824 254 0 0 255 0.25 0.5
2 -3.8544601e-07 -0.040000044 0.6302621 -5.7207143e-07 -0.77638245 254 0 0 255 0.010000005 0.25
2 0.039999615 -4.569558e-08 0.63026243 0.7763822 -3.5051454e-07 254 0 0 255 0.25 0.010000005
2 -3.8544601e-07 0.039999954 0.6302622 1.6134048e-07 0.7763823 254 0 0 255 0.49 0.25
2 -3.8544601e-07 -0.040000044 0.6302621 -5.7207143e-07 -0.77638245 254 0 0 255 0.25 1
-5.9604645e-08 -0.028284004 -0.028284164 -0.6302625 -0.5489849 -0.5489854 254 0 0 255 0.125 0.5
2 -0.028284656 -0.028284317 0.6302619 -0.5489857 -0.5489851 254 0 0 255 0.125 1
-5.9604645e-08 -0.039999735 1.05300224e-07 -0.6302624 -0.7763822 -2.5983172e-07 254 0 0 255 0 0.5
-5.9604645e-08 0.028284537 0.028284376 -0.630262 0.54898524 0.54898554 254 0 0 255 0.9197056 0.08029437
-5.9604645e-08 0.028284537 -0.028284164 -0.6302621 0.54898566 -0.54898494 254 0 0 255 0.5802944 0.08029437
-5.9604645e-08 -0.028284004 -0.028284164 -0.6302625 -0.5489849 -0.5489854 254 0 0 255 0.5802944 0.41970563
1.7499999 -0.10000026 -2.6821102e-08 -0.6112932 -0.7914043 4.6151353e-08 254 0 0 255 0.25 0.49
2.25 -4.2319496e-07 -6.457005e-08 1 -3.72376e-07 4.8594508e-08 254 0 0 255 0.25 0.25
1.7499999 -0.09807879 0.019509006 -0.6112932 -0.7761977 0.15439543 254 0 0 255 0.29682168 0.48538846
1.75 -0.09238821 0.03826832 -0.61129326 -0.7311622 0.3028573 254 0 0 255 0.34184402 0.47173107
1.75 -0.08314722 0.055556998 -0.61129344 -0.6580284 0.4396804 254 0 0 255 0.38333684 0.44955269
1.75 -0.07071094 0.07071065 -0.6112995 -0.55961335 0.55959433 254 0 0 255 0.41970563 0.41970563
1.75 -0.055557285 0.08314693 -0.61129344 -0.43968064 0.6580284 254 0 0 255 0.44955269 0.38333684
1.75 -0.038268607 0.09238792 -0.61129844 -0.30285993 0.7311567 254 0 0 255 0.47173107 0.34184402
1.75 -0.019509293 0.0980785 -0.61129314 -0.15439521 0.77619773 254 0 0 255 0.48538846 0.29682168
1.75 -2.6027428e-07 0.09999997 -0.6112929 1.9918454e-07 0.79140455 254 0 0 255 0.49 0.25
1.75 0.019508772 0.0980785 -0.61129344 0.15439574 0.7761974 254 0 0 255 0.48538846 0.20317832
1.75 0.038268086 0.09238792 -0.6113098 0.30286616 0.7311446 254 0 0 255 0.47173107 0.15815598
1.75 0.055556763 0.08314693 -0.6112937 0.43968165 0.6580276 254 0 0 255 0.44955269 0.11666316
1.75 0.07071042 0.07071065 -0.6112991 0.5596139 0.5595943 254 0 0 255 0.41970563 0.08029437
1.75 0.0831467 0.055556998 -0.6112919 0.6580278 0.43968365 254 0 0 255 0.38333684 0.050447315
1.75 0.09238769 0.03826832 -0.6112928 0.73116255 0.3028573 254 0 0 255 0.34184402 0.028268933
1.75 0.098078266 0.019509006 -0.6112927 0.776198 0.15439507 254 0 0 255 0.29682168 0.014611557
1.75 0.09999974 -2.6821109e-08 -0.6112927 0.79140466 4.6151317e-08 254 0 0 255 0.25 0.010000005
1.75 0.098078266 -0.019509058 -0.6112927 0.776198 -0.15439534 254 0 0 255 0.20317832 0.014611557
1.75 0.09238769 -0.038268372 -0.6112928 0.73116255 -0.3028572 254 0 0 255 0.15815598 0.028268933
1.75 0.0831467 -0.05555705 -0.61129266 0.65802854 -0.4396812 254 0 0 255 0.11666316 0.050447315
1.75 0.07071042 -0.07071071 -0.6112993 0.5596137 -0.5595942 254 0 0 255 0.08029437 0.08029437
1.75 0.055556763 -0.08314699 -0.61129 0.43967876 -0.6580328 254 0 0 255 0.050447315 0.11666316
1.75 0.038268086 -0.09238798 -0.61130995 0.30286616 -0.7311445 254 0 0 255 0.028268933 0.15815598
1.75 0.019508772 -0.09807856 -0.61129326 0.15439565 -0.7761975 254 0 0 255 0.014611557 0.20317832
1.75 -2.6027428e-07 -0.10000003 -0.611293 1.9918454e-07 -0.7914044 254 0 0 255 0.010000005 0.25
1.75 -0.019509293 -0.09807856 -0.61129034 -0.15439442 -0.77620006 254 0 0 255 0.014611557 0.29682168
1.75 -0.038268607 -0.09238798 -0.6112759 -0.30284867 -0.7311801 254 0 0 255 0.028268933 0.34184402
1.75 -0.055557285 -0.08314699 -0.61129314 -0.4396805 -0.65802854 254 0 0 255 0.050447315 0.38333684
1.75 -0.07071094 -0.07071071 -0.6112996 -0.5596135 -0.55959415 254 0 0 255 0.08029437 0.41970563
1.7499999 -0.08314722 -0.05555705 -0.61129236 -0.65802747 -0.43968353 254 0 0 255 0.11666316 0.44955269
1.7499999 -0.09238821 -0.038268372 -0.61129326 -0.7311622 -0.3028572 254 0 0 255 0.15815598 0.47173107
1.75 0.098078266 0.019509006 -0.6112927 0.776198 0.15439507 254 0 0 255 0.79682165 0.014611557
1.75 0.019508772 -0.09807856 -0.61129326 0.15439565 -0.7761975 254 0 0 255 0.51461154 0.20317832
1.7499999 -0.09807879 -0.019509058 -0.61129326 -0.7761977 -0.15439521 254 0 0 255 0.70317835 0.48538846
1.7499999 -0.09807879 -0.019509058 -0.61129326 -0.7761977 -0.15439521 254 0 0 255 0.20317832 0.48538846
2 -0.028284656 0.028284224 0.630262 -0.5489852 0.5489855 254 0 0 255 0.41970563 0.41970563
2 -0.040000383 -4.569558e-08 0.63026196 -0.77638257 2.5534757e-07 254 0 0 255 0.25 0.49
2 -0.028284656 -0.028284317 0.6302619 -0.5489857 -0.5489851 254 0 0 255 0.08029437 0.41970563
2 0.028283885 -0.028284317 0.63026226 0.5489848 -0.5489856 254 0 0 255 0.08029437 0.08029437
2 0.028283885 0.028284224 0.6302624 0.54898536 0.548985 254 0 0 255 0.41970563 0.08029437
2 -0.040000383 -4.569558e-08 0.63026196 -0.77638257 2.5534757e-07 254 0 0 255 0 1
-5.9604645e-08 -0.039999735 1.05300224e-07 -0.6302624 -0.7763822 -2.5983172e-07 254 0 0 255 0.75 0.49
-5.9604645e-08 -0.028284004 0.028284376 -0.6302623 -0.5489853 0.54898506 254 0 0 255 0.9197056 0.41970563
-5.9604645e-08 2.6623673e-07 0.040000103 -0.6302621 -1.6557557e-07 0.7763825 254 0 0 255 0.99 0.25
-5.9604645e-08 0.040000264 1.05300224e-07 -0.6302619 0.77638257 3.5499863e-07 254 0 0 255 0.75 0.010000005
-5.9604645e-08 2.6623673e-07 -0.039999895 -0.6302622 5.7630655e-07 -0.7763824 254 0 0 255 0.51 0.25
1.7499999 -0.10000026 -2.6821102e-08 -0.6112932 -0.7914043 4.6151353e-08 254 0 0 255 0.75 0.49
1.7499999 -0.09807879 0.019509006 -0.6112932 -0.7761977 0.15439543 254 0 0 255 0.79682165 0.48538846
1.75 -0.09238821 0.03826832 -0.61129326 -0.7311622 0.3028573 254 0 0 255 0.841844 0.47173107
1.75 -0.08314722 0.055556998 -0.61129344 -0.6580284 0.4396804 254 0 0 255 0.88333684 0.44955269
1.75 -0.07071094 0.07071065 -0.6112995 -0.55961335 0.55959433 254 0 0 255 0.9197056 0.41970563
1.75 -0.055557285 0.08314693 -0.61129344 -0.43968064 0.6580284 254 0 0 255 0.94955266 0.38333684
1.75 -0.038268607 0.09238792 -0.61129844 -0.30285993 0.7311567 254 0 0 255 0.97173107 0.34184402
1.75 -0.019509293 0.0980785 -0.61129314 -0.15439521 0.77619773 254 0 0 255 0.98538846 0.29682168
1.75 -2.6027428e-07 0.09999997 -0.6112929 1.9918454e-07 0.79140455 254 0 0 255 0.99 0.25
1.75 0.019508772 0.0980785 -0.61129344 0.15439574 0.7761974 254 0 0 255 0.98538846 0.20317832
1.75 0.038268086 0.09238792 -0.6113098 0.30286616 0.7311446 254 0 0 255 0.97173107 0.15815598
1.75 0.055556763 0.08314693 -0.6112937 0.43968165 0.6580276 254 0 0 255 0.94955266 0.11666316
1.75 0.07071042 0.07071065 -0.6112991 0.5596139 0.5595943 254 0 0 255 0.9197056 0.08029437
1.75 0.0831467 0.055556998 -0.6112919 0.6580278 0.43968365 254 0 0 255 0.88333684 0.050447315
1.75 0.09238769 0.03826832 -0.6112928 0.73116255 0.3028573 254 0 0 255 0.841844 0.028268933
1.75 0.09999974 -2.6821109e-08 -0.6112927 0.79140466 4.6151317e-08 254 0 0 255 0.75 0.010000005
1.75 0.098078266 -0.019509058 -0.6112927 0.776198 -0.15439534 254 0 0 255 0.70317835 0.014611557
1.75 0.09238769 -0.038268372 -0.6112928 0.73116255 -0.3028572 254 0 0 255 0.658156 0.028268933
1.75 0.0831467 -0.05555705 -0.61129266 0.65802854 -0.4396812 254 0 0 255 0.61666316 0.050447315
1.75 0.07071042 -0.07071071 -0.6112993 0.5596137 -0.5595942 254 0 0 255 0.5802944 0.08029437
1.75 0.055556763 -0.08314699 -0.61129 0.43967876 -0.6580328 254 0 0 255 0.55044734 0.11666316
1.75 0.038268086 -0.09238798 -0.61130995 0.30286616 -0.7311445 254 0 0 255 0.52826893 0.15815598
1.75 -2.6027428e-07 -0.10000003 -0.611293 1.9918454e-07 -0.7914044 254 0 0 255 0.51 0.25
1.75 -0.019509293 -0.09807856 -0.61129034 -0.15439442 -0.77620006 254 0 0 255 0.51461154 0.29682168
1.75 -0.038268607 -0.09238798 -0.6112759 -0.30284867 -0.7311801 254 0 0 255 0.52826893 0.34184402
1.75 -0.055557285 -0.08314699 -0.61129314 -0.4396805 -0.65802854 254 0 0 255 0.55044734 0.38333684
1.75 -0.07071094 -0.07071071 -0.6112996 -0.5596135 -0.55959415 254 0 0 255 0.5802944 0.41970563
1.7499999 -0.08314722 -0.05555705 -0.61129236 -0.65802747 -0.43968353 254 0 0 255 0.61666316 0.44955269
1.7499999 -0.09238821 -0.038268372 -0.61129326 -0.7311622 -0.3028572 254 0 0 255 0.658156 0.47173107
0.06930377 1.4901161e-08 2.4570033e-08 0.7214615 0 -1.1200576e-06 254 254 254 255 0.181819 0
0.058953553 -0.021415642 0.029476494 0.61371356 -0.22294097 0.3068545 254 254 254 255 0.2272735 0.0787305
0.05895356 -0.034651548 -0.01125876 0.6137137 -0.36072809 -0.117206536 254 254 254 255 0.1363645 0.0787305
0.030994004 -0.03643473 0.05014874 0.32265 -0.37929162 0.5220551 254 254 254 255 0.272728 0.157461
0.058953553 -0.021415642 0.029476494 0.61371356 -0.22294097 0.3068545 254 254 254 255 0.3181825 0.0787305
0.036435485 1.4901161e-08 0.058953132 0.37929714 -1.9139838e-08 0.6137103 254 254 254 255 0.363637 0.157461
0.06930377 1.4901161e-08 2.4570033e-08 0.7214615 0 -1.1200576e-06 254 254 254 255 0.909091 0
0.05895356 -0.034651548 -0.01125876 0.6137137 -0.36072809 -0.117206536 254 254 254 255 0.9545455 0.0787305
0.058953367 1.4901161e-08 -0.036435034 0.61371243 -3.827968e-09 -0.3792938 254 254 254 255 0.8636365 0.0787305
0.06930377 1.4901161e-08 2.4570033e-08 0.7214615 0 -1.1200576e-06 254 254 254 255 0.727273 0
0.058953367 1.4901161e-08 -0.036435034 0.61371243 -3.827968e-09 -0.3792938 254 254 254 255 0.7727275 0.0787305
0.05895356 0.034651577 -0.01125876 0.6137137 0.36072814 -0.11720651 254 254 254 255 0.6818185 0.0787305
0.06930377 1.4901161e-08 2.4570033e-08 0.7214615 0 -1.1200576e-06 254 254 254 255 0.545455 0
0.05895356 0.034651577 -0.01125876 0.6137137 0.36072814 -0.11720651 254 254 254 255 0.5909095 0.0787305
0.058953553 0.021415671 0.029476494 0.61371356 0.22294097 0.3068545 254 254 254 255 0.5000005 0.0787305
4.9762106e-09 -0.021415727 0.065911934 2.2788976e-07 -0.22294258 0.686151 254 254 254 255 0.3181825 0.236191
0.03099402 -0.058953185 -0.019154703 0.32265082 -0.6137109 -0.19940427 254 254 254 255 0.09091 0.157461
0.036435608 -0.05606755 0.01821783 0.37929782 -0.5836717 0.18964982 254 254 254 255 0.18181899 0.157461
0 -0.069303766 2.9802322e-08 -2.4881858e-08 -0.7214615 1.878528e-15 254 254 254 255 0.1363645 0.236191
0.030993726 1.4901161e-08 -0.061987083 0.32264856 2.2752824e-08 -0.64529413 254 254 254 255 0.818182 0.157461
0.0364355 -0.034651663 -0.047694094 0.37929702 -0.36072984 -0.49650213 254 254 254 255 0.909091 0.157461
-4.9762106e-09 -0.021415727 -0.065911874 -2.2406181e-07 -0.22294255 -0.686151 254 254 254 255 0.8636365 0.236191
0.03099402 0.058953214 -0.019154703 0.32265082 0.61371094 -0.1994043 254 254 254 255 0.636364 0.157461
0.0364355 0.034651693 -0.047694094 0.379297 0.36072987 -0.49650216 254 254 254 255 0.727273 0.157461
-3.0754645e-09 0.05606793 -0.040735733 8.473736e-08 0.5836742 -0.42406502 254 254 254 255 0.6818185 0.236191
0.030994004 0.03643476 0.05014874 0.32265 0.37929162 0.5220551 254 254 254 255 0.454546 0.157461
0.036435608 0.05606758 0.01821783 0.37929782 0.5836717 0.18964982 254 254 254 255 0.545455 0.157461
3.0754645e-09 0.05606793 0.040735792 -1.1153321e-07 0.5836742 0.42406505 254 254 254 255 0.5000005 0.236191
3.0754645e-09 -0.0560679 0.040735792 -1.05791244e-07 -0.5836742 0.42406505 254 254 254 255 0.2272735 0.236191
-3.0754645e-09 -0.0560679 -0.040735733 1.01963266e-07 -0.5836742 -0.42406496 254 254 254 255 0.045455 0.236191
-4.9762106e-09 0.021415757 -0.065911874 -2.2788976e-07 0.22294258 -0.686151 254 254 254 255 0.7727275 0.236191
0 0.069303796 2.9802322e-08 -3.0623827e-08 0.7214615 -1.913987e-09 254 254 254 255 0.5909095 0.236191
4.9762106e-09 0.021415757 0.065911934 2.2406178e-07 0.22294253 0.686151 254 254 254 255 0.4090915 0.236191
-0.03099402 -0.058953185 0.019154763 -0.32265082 -0.6137109 0.19940424 254 254 254 255 0.181819 0.314921
-0.0364355 -0.034651663 0.047694154 -0.37929702 -0.3607299 0.49650216 254 254 254 255 0.272728 0.314921
-0.05895356 -0.034651548 0.011258819 -0.6137137 -0.36072814 0.11720651 254 254 254 255 0.2272735 0.3936515
-0.030994004 -0.03643473 -0.05014868 -0.32264996 -0.37929162 -0.5220551 254 254 254 255 0 0.314921
-0.036435608 -0.05606755 -0.01821777 -0.37929782 -0.5836717 -0.18964982 254 254 254 255 0.0909095 0.314921
-0.058953553 -0.021415642 -0.029476434 -0.61371344 -0.22294097 -0.3068545 254 254 254 255 0.045455 0.3936515
-0.030994004 0.03643476 -0.05014868 -0.32264996 0.37929162 -0.5220551 254 254 254 255 0.727273 0.314921
-0.036435485 1.4901161e-08 -0.058953073 -0.37929714 0 -0.61371034 254 254 254 255 0.818182 0.314921
-0.058953553 0.021415671 -0.029476434 -0.61371344 0.22294097 -0.3068545 254 254 254 255 0.7727275 0.3936515
-0.03099402 0.058953214 0.019154763 -0.32265082 0.6137109 0.19940424 254 254 254 255 0.545455 0.314921
-0.036435608 0.05606758 -0.01821777 -0.37929782 0.58367175 -0.18964982 254 254 254 255 0.636364 0.314921
-0.05895356 0.034651577 0.011258819 -0.61371374 0.36072814 0.11720653 254 254 254 255 0.5909095 0.3936515
-0.030993726 1.4901161e-08 0.061987143 -0.32264856 0 0.64529413 254 254 254 255 0.363637 0.314921
-0.0364355 0.034651693 0.047694154 -0.37929702 0.3607299 0.49650216 254 254 254 255 0.45454597 0.314921
-0.058953367 1.4901161e-08 0.036435094 -0.61371243 -9.56992e-09 0.3792938 254 254 254 255 0.4090915 0.3936515
-0.05895356 0.034651577 0.011258819 -0.61371374 0.36072814 0.11720653 254 254 254 255 0.5000005 0.3936515
-0.06930377 1.4901161e-08 3.5034613e-08 -0.7214615 1.8960655e-09 1.1428104e-06 254 254 254 255 0.454546 0.472382
-0.058953553 0.021415671 -0.029476434 -0.61371344 0.22294097 -0.3068545 254 254 254 255 0.6818185 0.3936515
-0.06930377 1.4901161e-08 3.5034613e-08 -0.7214615 1.8960655e-09 1.1428104e-06 254 254 254 255 0.636364 0.472382
-0.058953553 -0.021415642 -0.029476434 -0.61371344 -0.22294097 -0.3068545 254 254 254 255 0.8636365 0.3936515
-0.06930377 1.4901161e-08 3.5034613e-08 -0.7214615 1.8960655e-09 1.1428104e-06 254 254 254 255 0.818182 0.472382
-0.030994004 -0.03643473 -0.05014868 -0.32264996 -0.37929162 -0.5220551 254 254 254 255 0.909091 0.314921
-0.05895356 -0.034651548 0.011258819 -0.6137137 -0.36072814 0.11720651 254 254 254 255 0.1363645 0.3936515
-0.06930377 1.4901161e-08 3.5034613e-08 -0.7214615 1.8960655e-09 1.1428104e-06 254 254 254 255 0.09091 0.472382
-0.058953367 1.4901161e-08 0.036435094 -0.61371243 -9.56992e-09 0.3792938 254 254 254 255 0.3181825 0.3936515
-0.06930377 1.4901161e-08 3.5034613e-08 -0.7214615 1.8960655e-09 1.1428104e-06 254 254 254 255 0.272728 0.472382
-3.0754645e-09 -0.0560679 -0.040735733 1.01963266e-07 -0.5836742 -0.42406496 254 254 254 255 0.9545455 0.236191
0.03099402 -0.058953185 -0.019154703 0.32265082 -0.6137109 -0.19940427 254 254 254 255 1 0.157461
0.058953553 0.021415671 0.029476494 0.61371356 0.22294097 0.3068545 254 254 254 255 0.4090915 0.0787305
0.06930377 1.4901161e-08 2.4570033e-08 0.7214615 0 -1.1200576e-06 254 254 254 255 0.363637 0
3 0 1 2
3 2 1 3
3 3 1 4
3 4 1 5
3 5 1 6
3 6 1 7
3 7 1 8
3 8 1 9
3 9 1 10
3 10 1 11
3 11 1 12
3 12 1 13
3 13 1 14
3 14 1 15
3 15 1 16
3 16 1 17
3 17 1 18
3 18 1 19
3 19 1 20
3 20 1 21
3 21 1 22
3 22 1 23
3 23 1 24
3 24 1 25
3 25 1 26
3 26 1 27
3 27 1 28
3 28 1 29
3 29 1 30
3 30 1 31
3 32 33 34
3 31 1 35
3 35 1 0
3 36 37 38
3 39 40 37
3 41 42 40
3 43 44 42
3 45 46 44
3 47 48 46
3 49 50 51
3 52 53 48
3 54 55 53
3 56 57 58
3 33 59 60
3 60 61 62
3 62 63 64
3 64 65 66
3 66 67 68
3 68 69 70
3 70 71 72
3 72 73 34
3 34 74 75
3 75 76 77
3 77 78 79
3 79 80 81
3 81 82 83
3 83 84 32
3 32 85 86
3 86 87 33
3 33 60 62
3 62 64 66
3 66 68 70
3 70 72 34
3 34 75 77
3 77 79 81
3 81 83 32
3 32 86 33
3 33 62 66
3 66 70 33
3 70 34 33
3 34 77 81
3 81 32 34
3 36 39 37
3 39 41 40
3 41 43 42
3 43 45 44
3 45 47 46
3 47 52 48
3 51 88 89
3 89 90 49
3 49 91 50
3 50 92 51
3 51 89 49
3 52 54 53
3 54 93 55
3 58 94 95
3 95 96 56
3 56 97 57
3 57 98 58
3 58 95 56
3 99 100 101
3 101 100 102
3 102 100 103
3 103 100 104
3 104 100 105
3 105 100 106
3 106 100 107
3 107 100 108
3 108 100 109
3 109 100 110
3 110 100 111
3 111 100 112
3 112 100 113
3 113 100 114
3 114 100 115
3 115 100 116
3 116 100 117
3 117 100 118
3 118 100 119
3 119 100 120
3 120 100 121
3 121 100 122
3 122 100 123
3 123 100 124
3 124 100 125
3 125 100 126
3 126 100 127
3 127 100 128
3 128 100 129
3 129 100 130
3 131 132 133
3 130 100 134
3 134 100 99
3 135 136 137
3 138 139 136
3 140 141 139
3 142 143 141
3 144 145 143
3 146 147 145
3 148 149 150
3 151 152 147
3 153 154 152
3 155 156 157
3 132 158 159
3 159 160 161
3 161 162 163
3 163 164 165
3 165 166 167
3 167 168 169
3 169 170 171
3 171 172 133
3 133 173 174
3 174 175 176
3 176 177 178
3 178 179 180
3 180 181 182
3 182 183 131
3 131 184 185
3 185 186 132
3 132 159 161
3 161 163 165
3 165 167 169
3 169 171 133
3 133 174 176
3 176 178 180
3 180 182 131
3 131 185 132
3 132 161 165
3 165 169 132
3 169 133 132
3 133 176 180
3 180 131 133
3 135 138 136
3 138 140 139
3 140 142 141
3 142 144 143
3 144 146 145
3 146 151 147
3 150 187 188
3 188 189 148
3 148 190 149
3 149 191 150
3 150 188 148
3 151 153 152
3 153 192 154
3 155 193 156
3 156 194 157
3 157 195 196
3 196 197 157
3 197 155 157
3 198 199 200
3 201 202 199
3 203 204 202
3 205 206 204
3 207 208 206
3 209 210 208
3 211 212 213
3 214 215 210
3 216 217 215
3 218 219 220
3 221 222 223
3 223 222 224
3 224 222 225
3 225 222 226
3 226 222 227
3 227 222 228
3 228 222 229
3 229 222 230
3 230 222 231
3 231 222 232
3 232 222 233
3 233 222 234
3 234 222 235
3 235 222 236
3 236 222 237
3 237 222 238
3 238 222 239
3 239 222 240
3 240 222 241
3 241 222 242
3 242 222 243
3 243 222 244
3 244 222 245
3 245 222 246
3 246 222 247
3 247 222 248
3 248 222 249
3 249 222 250
3 250 222 251
3 251 222 252
3 253 254 255
3 252 222 256
3 256 222 221
3 198 201 199
3 201 203 202
3 203 205 204
3 205 207 206
3 207 209 208
3 209 214 210
3 213 257 258
3 258 259 211
3 211 260 212
3 212 261 213
3 213 258 211
3 214 216 215
3 216 262 217
3 220 263 264
3 264 265 218
3 218 266 219
3 219 267 220
3 220 264 218
3 255 268 269
3 269 270 271
3 271 272 273
3 273 274 271
3 274 275 271
3 275 276 277
3 277 278 279
3 279 280 281
3 281 282 253
3 253 283 284
3 284 285 286
3 286 287 288
3 288 289 254
3 254 290 291
3 291 292 293
3 293 294 295
3 295 296 255
3 255 269 271
3 275 277 279
3 279 281 253
3 253 284 286
3 286 288 254
3 254 291 293
3 293 295 255
3 255 271 275
3 275 279 255
3 279 253 255
3 253 286 254
3 254 293 255
3 297 298 299
3 300 301 302
3 303 304 305
3 306 307 308
3 309 310 311
3 300 302 312
3 313 314 315
3 316 317 318
3 319 320 321
3 322 323 324
3 300 312 325
3 313 315 326
3 316 318 327
3 319 321 328
3 322 324 329
3 330 331 332
3 333 334 335
3 336 337 338
3 339 340 341
3 342 343 344
3 344 345 346
3 344 343 345
3 343 339 345
3 341 347 348
3 341 340 347
3 340 336 347
3 338 349 350
3 338 337 349
3 337 351 349
3 335 352 353
3 335 334 352
3 334 330 352
3 332 354 355
3 332 331 354
3 331 342 354
3 329 343 342
3 329 324 343
3 324 339 343
3 328 340 339
3 328 321 340
3 321 336 340
3 327 337 336
3 327 318 337
3 318 351 337
3 326 334 333
3 326 315 334
3 315 330 334
3 325 331 330
3 325 312 331
3 312 342 331
3 324 328 339
3 324 323 328
3 323 319 328
3 321 327 336
3 321 320 327
3 320 316 327
3 318 356 351
3 318 317 356
3 317 357 356
3 315 325 330
3 315 314 325
3 314 300 325
3 312 329 342
3 312 302 329
3 302 322 329
3 311 323 322
3 311 310 323
3 310 319 323
3 308 320 319
3 308 307 320
3 307 316 320
3 305 317 316
3 305 304 317
3 304 357 317
3 302 358 322
3 302 301 358
3 301 359 358
3 299 314 313
3 299 298 314
3 298 300 314
