<?xml version="1.0" encoding="UTF-8" standalone="no"?>
<!-- Created with Inkscape (http://www.inkscape.org/) -->

<svg
   width="98.267906mm"
   height="118.243mm"
   viewBox="0 0 98.267906 118.243"
   version="1.1"
   id="svg1"
   xml:space="preserve"
   inkscape:version="1.3.2 (091e20e, 2023-11-25, custom)"
   sodipodi:docname="PRISMAText.svg"
   xmlns:inkscape="http://www.inkscape.org/namespaces/inkscape"
   xmlns:sodipodi="http://sodipodi.sourceforge.net/DTD/sodipodi-0.dtd"
   xmlns:xlink="http://www.w3.org/1999/xlink"
   xmlns="http://www.w3.org/2000/svg"
   xmlns:svg="http://www.w3.org/2000/svg"><sodipodi:namedview
     id="namedview1"
     pagecolor="#505050"
     bordercolor="#ffffff"
     borderopacity="1"
     inkscape:showpageshadow="0"
     inkscape:pageopacity="0"
     inkscape:pagecheckerboard="1"
     inkscape:deskcolor="#505050"
     inkscape:document-units="mm"
     inkscape:zoom="0.99999999"
     inkscape:cx="339.5"
     inkscape:cy="108.5"
     inkscape:window-width="3840"
     inkscape:window-height="2126"
     inkscape:window-x="3829"
     inkscape:window-y="-11"
     inkscape:window-maximized="1"
     inkscape:current-layer="layer1" /><defs
     id="defs1"><linearGradient
       id="linearGradient21"
       inkscape:collect="always"><stop
         style="stop-color:#000000;stop-opacity:0.32760182;"
         offset="0"
         id="stop21" /><stop
         style="stop-color:#000000;stop-opacity:0;"
         offset="1"
         id="stop22" /></linearGradient><linearGradient
       id="linearGradient15"
       inkscape:collect="always"><stop
         style="stop-color:#210d68;stop-opacity:1;"
         offset="0"
         id="stop16" /><stop
         style="stop-color:#711aeb;stop-opacity:1;"
         offset="0.35632315"
         id="stop18" /><stop
         style="stop-color:#771bea;stop-opacity:1;"
         offset="0.4632411"
         id="stop19" /><stop
         style="stop-color:#144fd2;stop-opacity:1;"
         offset="1"
         id="stop17" /></linearGradient><linearGradient
       id="linearGradient12"
       inkscape:collect="always"><stop
         style="stop-color:#0e0c7d;stop-opacity:1;"
         offset="0"
         id="stop13" /><stop
         style="stop-color:#3115bb;stop-opacity:1;"
         offset="0.1944664"
         id="stop15" /><stop
         style="stop-color:#aa3aeb;stop-opacity:1;"
         offset="1"
         id="stop14" /></linearGradient><linearGradient
       id="linearGradient10"
       inkscape:collect="always"><stop
         style="stop-color:#4cf2ff;stop-opacity:1;"
         offset="0"
         id="stop11" /><stop
         style="stop-color:#5441ed;stop-opacity:1;"
         offset="1"
         id="stop12" /></linearGradient><linearGradient
       inkscape:collect="always"
       xlink:href="#linearGradient10"
       id="linearGradient8"
       x1="100"
       y1="51"
       x2="50.866146"
       y2="136.10229"
       gradientUnits="userSpaceOnUse"
       gradientTransform="translate(-32.531978,-32.543749)" /><linearGradient
       inkscape:collect="always"
       xlink:href="#linearGradient12"
       id="linearGradient14"
       x1="50.866146"
       y1="136.10229"
       x2="149.13405"
       y2="136.10229"
       gradientUnits="userSpaceOnUse"
       gradientTransform="translate(-32.531978,-32.543749)" /><linearGradient
       inkscape:collect="always"
       xlink:href="#linearGradient15"
       id="linearGradient17"
       x1="149.13405"
       y1="136.10229"
       x2="100.0001"
       y2="50.999989"
       gradientUnits="userSpaceOnUse"
       gradientTransform="translate(-32.531978,-32.543749)" /><linearGradient
       inkscape:collect="always"
       xlink:href="#linearGradient21"
       id="linearGradient22"
       x1="100.0001"
       y1="60.523438"
       x2="149.13405"
       y2="136.10229"
       gradientUnits="userSpaceOnUse"
       gradientTransform="translate(-32.531978,-32.543749)" /></defs><g
     inkscape:label="Ebene 1"
     inkscape:groupmode="layer"
     id="layer1"
     transform="translate(-18.334167,-18.456241)"><path
       id="path6"
       style="opacity:1;fill:url(#linearGradient17);stroke:none;stroke-width:1;stroke-linecap:square"
       d="m 67.468122,18.456241 49.133948,85.102299 -98.267903,2.5e-4 z"
       sodipodi:nodetypes="cccc" /><path
       id="path20"
       style="opacity:1;fill:url(#linearGradient22);stroke:none;stroke-width:1;stroke-linecap:square"
       d="M 67.468122,27.979691 18.334168,103.55854 h 98.267902 c 0,0 -36.383123,-63.016989 -49.133948,-75.578849 z"
       sodipodi:nodetypes="cccc" /><path
       style="opacity:1;fill:#17093e;fill-opacity:1;stroke:none;stroke-width:1;stroke-linecap:square"
       d="M 18.334168,103.55854 83.265217,84.311651 67.468122,35.088801 Z"
       id="path19"
       sodipodi:nodetypes="cccc" /><path
       id="path5"
       style="opacity:1;fill:url(#linearGradient8);fill-opacity:1;stroke:none;stroke-width:1;stroke-linecap:square"
       d="M 67.468122,18.456241 18.334168,103.55854 67.468122,75.191281 Z" /><path
       style="opacity:1;fill:url(#linearGradient14);stroke:none;stroke-width:1;stroke-linecap:square"
       d="M 18.334167,103.55854 67.468122,75.191281 116.60199,103.55879 Z"
       id="path7" /><path
       style="opacity:0.2;fill:#17093e;fill-opacity:1;stroke:none;stroke-width:1;stroke-linecap:square"
       d="M 18.334168,103.55854 83.265217,84.311651 67.468122,75.191281 Z"
       id="path1"
       sodipodi:nodetypes="cccc" /><g
       id="g11"
       transform="translate(-1.4e-6,-1.3096207)"><g
         id="text8"
         transform="translate(-4.4291122,-43.590744)"><path
           style="color:#000000;-inkscape-font-specification:'11S01 Black Tuesday';fill:#ffffff;stroke-linecap:square;-inkscape-stroke:none"
           d="m 41.273332,171.57761 q 0,0.99477 -0.697631,1.69241 -0.697631,0.68471 -1.692401,0.68471 h -5.55521 v 5.55521 q 0,0.67179 -0.452168,1.12396 -0.452168,0.46508 -1.123961,0.46508 -0.671793,0 -1.13688,-0.46508 -0.452168,-0.45217 -0.452168,-1.12396 v -15.87757 q 0,-0.99477 0.684712,-1.67948 0.697631,-0.69763 1.692401,-0.69763 H 38.8833 q 0.99477,0 1.692401,0.69763 0.697631,0.68471 0.697631,1.67948 z m -3.178097,-0.80098 v -6.34327 H 33.32809 v 6.34327 z"
           id="path9" /><path
           style="color:#000000;-inkscape-font-specification:'11S01 Black Tuesday';fill:#1a1a1a;stroke-linecap:square;-inkscape-stroke:none"
           d="m 32.539062,160.75586 c -0.780062,0 -1.495811,0.29464 -2.044921,0.84375 -0.542084,0.54208 -0.832032,1.2553 -0.832032,2.0332 v 15.87696 c 0,0.56003 0.210619,1.08952 0.59961,1.47851 0.395173,0.39517 0.92699,0.61133 1.490234,0.61133 0.561716,0 1.091074,-0.21851 1.478516,-0.61524 0.386952,-0.38868 0.597656,-0.91609 0.597656,-1.4746 v -5.05469 h 5.054687 c 0.777898,0 1.493092,-0.28843 2.042969,-0.82813 l 0.002,-0.002 0.002,-0.002 c 0.549109,-0.54912 0.843751,-1.26486 0.84375,-2.04493 l -9.4e-5,-7.94509 -1,2.40625 9.4e-5,5.53884 c 9e-6,0.54534 -0.169176,0.95544 -0.548828,1.33594 -4.76e-4,4.7e-4 -0.0015,-4.6e-4 -0.002,0 -4.75e-4,4.8e-4 4.76e-4,0.001 0,0.002 -0.379745,0.37187 -0.792346,0.53906 -1.339844,0.53906 h -6.054687 v 6.05469 c 0,0.33568 -0.09274,0.55758 -0.306641,0.77148 l -0.002,0.002 -0.002,0.002 c -0.215174,0.22131 -0.433146,0.31445 -0.765625,0.31445 -0.332479,0 -0.558261,-0.0934 -0.783203,-0.31836 -0.213899,-0.2139 -0.306641,-0.4358 -0.306641,-0.77148 v -15.87696 c 0,-0.54846 0.168198,-0.95531 0.539063,-1.32617 0.381063,-0.38106 0.791594,-0.55078 1.33789,-0.55078 h 6.34375 c 0.546297,0 0.958781,0.16972 1.339844,0.55078 l 0.002,0.002 v 0.002 c 0.378697,0.37168 0.548828,0.77597 0.548828,1.32226 v 2.40625 l 1,-2.40625 c 0,-0.77916 -0.295455,-1.49412 -0.845703,-2.03515 -0.548863,-0.5479 -1.265758,-0.8418 -2.044922,-0.8418 z m 0.289063,3.17773 v 7.34375 h 5.767578 v -0.5 -6.84375 z m 1,1 h 3.767578 v 5.34375 h -3.767578 z"
           id="path10"
           sodipodi:nodetypes="cssssscscsscscccssscscssccssssssssccscccccccccccccccc" /></g><path
         style="font-size:26.4583px;font-family:'11S01 Black Tuesday';-inkscape-font-specification:'11S01 Black Tuesday';text-align:center;letter-spacing:2.64583px;word-spacing:0px;text-anchor:middle;fill:#ffffff;stroke:#1a1a1a;stroke-linecap:square"
         d="m 50.987238,119.25419 q 0,0.67179 -0.465087,1.13688 -0.452168,0.45217 -1.123961,0.45217 h -5.555209 v 7.93232 q 0,0.67179 -0.452168,1.13688 -0.452169,0.45217 -1.123961,0.45217 -0.671793,0 -1.13688,-0.45217 -0.452169,-0.46509 -0.452169,-1.13688 v -8.73331 q 0,-0.99477 0.684712,-1.67948 0.697631,-0.69763 1.692401,-0.69763 h 6.343274 q 0.671793,0 1.123961,0.46509 0.465087,0.45217 0.465087,1.12396 z m 7.012484,-4.76714 q 0,0.67179 -0.452168,1.13688 -0.452168,0.45216 -1.123961,0.45216 -0.671793,0 -1.13688,-0.45216 -0.452168,-0.46509 -0.452168,-1.13688 0,-0.6718 0.452168,-1.12397 0.465087,-0.46508 1.13688,-0.46508 0.658873,0 1.111042,0.46508 0.465087,0.46509 0.465087,1.12397 z m 0,14.28851 q 0,0.67179 -0.452168,1.13688 -0.452168,0.45217 -1.123961,0.45217 -0.671793,0 -1.13688,-0.45217 -0.452168,-0.46509 -0.452168,-1.13688 v -9.52137 q 0,-0.67179 0.452168,-1.12396 0.465087,-0.46509 1.13688,-0.46509 0.671793,0 1.123961,0.46509 0.452168,0.45217 0.452168,1.12396 z m 14.957724,0 q 0,0.67179 -0.465087,1.13688 -0.452169,0.45217 -1.123961,0.45217 h -7.932323 q -0.671792,0 -1.13688,-0.45217 -0.452168,-0.46509 -0.452168,-1.13688 0,-0.67179 0.452168,-1.12396 0.465088,-0.46509 1.13688,-0.46509 h 6.343274 v -1.58905 h -6.343274 q -0.671792,0 -1.13688,-0.45216 -0.452168,-0.46509 -0.452168,-1.13688 v -4.75423 q 0,-0.67179 0.452168,-1.12396 0.465088,-0.46509 1.13688,-0.46509 h 7.932323 q 0.671792,0 1.123961,0.46509 0.465087,0.45217 0.465087,1.12396 0,0.65887 -0.465087,1.12396 -0.465088,0.46509 -1.123961,0.46509 h -6.356193 v 1.58905 h 6.356193 q 0.658873,0 1.123961,0.46508 0.465087,0.45217 0.465087,1.11105 z m 21.288079,0 q 0,0.67179 -0.465087,1.13688 -0.452168,0.45217 -1.123961,0.45217 -0.671793,0 -1.123961,-0.45217 -0.452168,-0.46509 -0.452168,-1.13688 v -7.93232 h -3.979081 v 7.93232 q 0,0.82682 -1.589048,1.58905 -0.671793,0 -1.123961,-0.45217 -0.452168,-0.46509 -0.452168,-1.13688 v -7.93232 h -3.97908 v 7.93232 q 0,0.67179 -0.452168,1.13688 -0.452169,0.45217 -1.123961,0.45217 -0.671793,0 -1.13688,-0.45217 -0.452169,-0.46509 -0.452169,-1.13688 v -8.73331 q 0,-0.99477 0.684712,-1.67948 0.697631,-0.69763 1.692401,-0.69763 h 5.55521 q 0.400491,0 0.788064,0.12919 0.400492,-0.12919 0.800984,-0.12919 h 5.555209 q 0.99477,0 1.679482,0.69763 0.697631,0.68471 0.697631,1.67948 z m 14.957725,-0.78806 q 0,0.99477 -0.69764,1.6924 -0.69763,0.68471 -1.69239,0.68471 h -6.34327 q -0.994772,0 -1.692402,-0.68471 -0.68472,-0.69763 -0.68472,-1.6924 v -3.1781 q 0,-0.99477 0.68472,-1.67948 0.69763,-0.69763 1.692402,-0.69763 h 5.5552 v -1.58905 h -6.343272 q -0.67179,0 -1.13688,-0.45217 -0.45217,-0.46509 -0.45217,-1.13688 0,-0.67179 0.45217,-1.12396 0.46509,-0.46509 1.13688,-0.46509 h 7.131342 q 0.99476,0 1.69239,0.69763 0.69764,0.68471 0.69764,1.67948 z m -3.1781,-0.80099 v -2.37711 h -4.76714 v 2.37711 z"
         id="text11"
         aria-label="risma" /></g></g></svg>
