<?xml version="1.0" encoding="UTF-8" standalone="no"?>
<!-- Created with Inkscape (http://www.inkscape.org/) -->

<svg
   width="467.13928mm"
   height="101.5001mm"
   viewBox="0 0 467.13928 101.5001"
   version="1.1"
   id="svg1"
   inkscape:version="1.3.2 (091e20e, 2023-11-25, custom)"
   sodipodi:docname="PRISMATextPath.svg"
   xml:space="preserve"
   xmlns:inkscape="http://www.inkscape.org/namespaces/inkscape"
   xmlns:sodipodi="http://sodipodi.sourceforge.net/DTD/sodipodi-0.dtd"
   xmlns:xlink="http://www.w3.org/1999/xlink"
   xmlns="http://www.w3.org/2000/svg"
   xmlns:svg="http://www.w3.org/2000/svg"><sodipodi:namedview
     id="namedview1"
     pagecolor="#505050"
     bordercolor="#ffffff"
     borderopacity="1"
     inkscape:showpageshadow="0"
     inkscape:pageopacity="0"
     inkscape:pagecheckerboard="1"
     inkscape:deskcolor="#505050"
     inkscape:document-units="mm"
     inkscape:zoom="1.6311518"
     inkscape:cx="957.60554"
     inkscape:cy="333.20014"
     inkscape:window-width="3840"
     inkscape:window-height="2126"
     inkscape:window-x="3829"
     inkscape:window-y="-11"
     inkscape:window-maximized="1"
     inkscape:current-layer="layer1" /><defs
     id="defs1"><linearGradient
       id="linearGradient2"
       inkscape:collect="always"><stop
         style="stop-color:#e8e8e8;stop-opacity:1;"
         offset="0"
         id="stop1" /><stop
         style="stop-color:#ffffff;stop-opacity:1;"
         offset="1"
         id="stop2" /></linearGradient><rect
       x="854.61084"
       y="469.60681"
       width="1439.4736"
       height="405.84818"
       id="rect55" /><linearGradient
       id="linearGradient55"
       inkscape:collect="always"><stop
         style="stop-color:#1d9320;stop-opacity:1;"
         offset="0"
         id="stop54" /><stop
         style="stop-color:#abd832;stop-opacity:1;"
         offset="1"
         id="stop55" /></linearGradient><linearGradient
       id="linearGradient51"
       inkscape:collect="always"><stop
         style="stop-color:#134e6c;stop-opacity:1;"
         offset="0"
         id="stop50" /><stop
         style="stop-color:#1f7ead;stop-opacity:1;"
         offset="1"
         id="stop51" /></linearGradient><linearGradient
       id="linearGradient49"
       inkscape:collect="always"><stop
         style="stop-color:#1a427f;stop-opacity:1;"
         offset="0"
         id="stop48" /><stop
         style="stop-color:#269cd9;stop-opacity:1;"
         offset="1"
         id="stop49" /></linearGradient><linearGradient
       inkscape:collect="always"
       xlink:href="#linearGradient51"
       id="linearGradient45"
       gradientUnits="userSpaceOnUse"
       x1="-16.962015"
       y1="207.50713"
       x2="-33.85323"
       y2="178.25069"
       gradientTransform="translate(101.4083,30.695927)" /><linearGradient
       inkscape:collect="always"
       xlink:href="#linearGradient55"
       id="linearGradient46"
       gradientUnits="userSpaceOnUse"
       x1="14.761373"
       y1="145.18294"
       x2="0"
       y2="119.61551"
       gradientTransform="translate(101.4083,30.695927)" /><linearGradient
       inkscape:collect="always"
       xlink:href="#linearGradient49"
       id="linearGradient48"
       gradientUnits="userSpaceOnUse"
       x1="57.735027"
       y1="219.61551"
       x2="16.92647"
       y2="148.93301"
       gradientTransform="translate(101.4083,30.695927)" /><rect
       x="854.61084"
       y="469.60681"
       width="1882.3864"
       height="434.95789"
       id="rect58" /><rect
       x="854.61084"
       y="469.60681"
       width="1882.3864"
       height="434.95789"
       id="rect59" /><linearGradient
       inkscape:collect="always"
       xlink:href="#linearGradient2"
       id="linearGradient59"
       gradientUnits="userSpaceOnUse"
       x1="1535.0814"
       y1="817.2533"
       x2="1535.0814"
       y2="664.1355" /></defs><g
     inkscape:label="Ebene 1"
     inkscape:groupmode="layer"
     id="layer1"
     transform="translate(-42.807245,-149.81144)"><g
       id="g1"><path
         style="fill:url(#linearGradient48);fill-opacity:1;stroke:#000000;stroke-width:2;stroke-linecap:butt;stroke-linejoin:bevel;stroke-dasharray:none"
         d="m 139.00807,250.31154 -71.453002,-41.36492 50.779702,-29.31768 40.80856,70.6825 z"
         id="path42" /><path
         id="path43"
         style="fill:#134e6c;fill-opacity:1;stroke:#000000;stroke-width:2;stroke-linejoin:bevel;stroke-dasharray:none"
         d="M 101.27653,233.46812 72.156338,250.31154 H 130.37191 Z" /><path
         id="path44"
         style="fill:url(#linearGradient46);fill-opacity:1;stroke:#000000;stroke-width:2;stroke-linejoin:bevel;stroke-dasharray:none"
         d="M 101.4083,150.31144 71.885553,201.4463 116.16968,175.87887 Z" /><path
         style="fill:url(#linearGradient45);fill-opacity:1;stroke:#000000;stroke-width:2;stroke-linejoin:bevel;stroke-dasharray:none"
         d="m 43.673272,250.31144 23.881796,-41.36482 33.737772,19.51212 -37.78042,21.8528 z"
         id="path45" /></g><path
       style="font-size:341.333px;font-family:Impact;-inkscape-font-specification:Impact;white-space:pre;fill:url(#linearGradient59);stroke:#000000;stroke-width:6.9328;stroke-linejoin:bevel"
       d="m 868.61131,541.47676 h 70.6666 q 28.66664,0 43.99996,4.5 15.49999,4.49999 23.16663,12.99999 7.8333,8.49999 10.5,20.66664 2.8333,11.99999 2.8333,37.3333 v 23.49998 q 0,25.83331 -5.3333,37.66663 -5.3333,11.83332 -19.66664,18.16665 -14.16665,6.33332 -37.16663,6.33332 h -18.83332 v 108.66657 h -70.1666 z m 70.1666,46.16662 v 68.66661 q 3,0.16666 5.16667,0.16666 9.66665,0 13.33332,-4.66666 3.83333,-4.83333 3.83333,-19.83331 v -22.16665 q 0,-13.83332 -4.33333,-17.99998 -4.33333,-4.16667 -17.99999,-4.16667 z m 101.16659,-46.16662 h 49.6666 q 49.6666,0 67.1666,3.83333 17.6667,3.83333 28.6667,19.66665 11.1666,15.66665 11.1666,50.16662 0,31.49997 -7.8333,42.33329 -7.8333,10.83332 -30.8333,12.99999 20.8333,5.16666 28,13.83332 7.1666,8.66666 8.8333,15.99998 1.8333,7.16666 1.8333,39.8333 v 71.1666 h -65.1666 v -89.66658 q 0,-21.66665 -3.5,-26.83331 -3.3333,-5.16666 -17.8333,-5.16666 v 121.66655 h -70.1666 z m 70.1666,46.16662 v 59.99995 q 11.8333,0 16.5,-3.16667 4.8333,-3.33333 4.8333,-21.16664 V 608.4767 q 0,-12.83332 -4.6667,-16.83332 -4.5,-4 -16.6666,-4 z m 183.8331,-46.16662 v 269.83308 h -70.1666 V 541.47676 Z m 176.8332,81.66659 h -65.1666 v -19.99998 q 0,-13.99999 -2.5,-17.83332 -2.5,-3.83333 -8.3333,-3.83333 -6.3333,0 -9.6667,5.16667 -3.1666,5.16666 -3.1666,15.66665 0,13.49998 3.6666,20.33331 3.5,6.83333 19.8333,16.49999 46.8333,27.8333 59,45.66662 12.1666,17.83331 12.1666,57.49994 0,28.83331 -6.8333,42.49996 -6.6666,13.66666 -26,22.99998 -19.3333,9.16666 -44.9999,9.16666 -28.1667,0 -48.1666,-10.66666 -19.8334,-10.66665 -26,-27.16664 -6.1667,-16.49998 -6.1667,-46.83329 v -17.66665 h 65.1666 v 32.83331 q 0,15.16665 2.6667,19.49998 2.8333,4.33333 9.8333,4.33333 7,0 10.3333,-5.5 3.5,-5.49999 3.5,-16.33332 0,-23.83331 -6.5,-31.16663 -6.6666,-7.33333 -32.8333,-24.49998 -26.1666,-17.33332 -34.6666,-25.16664 -8.5,-7.83333 -14.1666,-21.66665 -5.5,-13.83332 -5.5,-35.3333 0,-30.99997 7.8333,-45.33329 8,-14.33332 25.6666,-22.33331 17.6667,-8.16666 42.6667,-8.16666 27.3333,0 46.4999,8.83333 19.3333,8.83332 25.5,22.33331 6.3333,13.33332 6.3333,45.49995 z m 244.3331,-81.66659 v 269.83308 h -61.3333 v -182.1665 l -24.5,182.1665 h -43.4999 L 1559.944,633.31001 v 177.99983 h -61.3333 V 541.47676 h 90.8333 q 3.9999,24.33331 8.4999,57.33328 l 9.6667,68.6666 16,-125.99988 z m 149.3332,0 40.1666,269.83308 h -71.8332 l -3.5,-48.49996 h -25.1667 l -4.1666,48.49996 h -72.6666 l 35.6666,-269.83308 z m -37.1666,173.49984 q -5.3334,-45.83329 -10.6667,-113.16656 -10.6666,77.33326 -13.3333,113.16656 z"
       id="text59"
       transform="matrix(0.31678808,0,0,0.26270853,-94.411314,24.618033)"
       aria-label="PRISMA" /></g></svg>
