<?xml version="1.0" encoding="UTF-8" standalone="no"?>
<!-- Created with Inkscape (http://www.inkscape.org/) -->

<svg
   width="42.011906mm"
   height="42.011391mm"
   viewBox="0 0 42.011906 42.011391"
   version="1.1"
   id="svg1"
   inkscape:version="1.3.2 (091e20e, 2023-11-25, custom)"
   sodipodi:docname="ManualControl.svg"
   xmlns:inkscape="http://www.inkscape.org/namespaces/inkscape"
   xmlns:sodipodi="http://sodipodi.sourceforge.net/DTD/sodipodi-0.dtd"
   xmlns="http://www.w3.org/2000/svg"
   xmlns:svg="http://www.w3.org/2000/svg">
  <sodipodi:namedview
     id="namedview1"
     pagecolor="#505050"
     bordercolor="#ffffff"
     borderopacity="1"
     inkscape:showpageshadow="0"
     inkscape:pageopacity="0"
     inkscape:pagecheckerboard="1"
     inkscape:deskcolor="#505050"
     inkscape:document-units="mm"
     inkscape:zoom="1.6311518"
     inkscape:cx="206.60248"
     inkscape:cy="71.421924"
     inkscape:window-width="3840"
     inkscape:window-height="2126"
     inkscape:window-x="3829"
     inkscape:window-y="-11"
     inkscape:window-maximized="1"
     inkscape:current-layer="layer1" />
  <defs
     id="defs1" />
  <g
     inkscape:label="Ebene 1"
     inkscape:groupmode="layer"
     id="layer1"
     transform="translate(-34.225301,-43.633512)">
    <path
       id="rect1"
       style="fill:#ffffff;stroke:none;stroke-width:1;stroke-linejoin:bevel;stroke-dasharray:none"
       d="m 39.616187,43.633512 c -2.986482,0 -5.390886,2.404405 -5.390886,5.390886 v 5.808431 h 3.441134 v -4.627108 c 0,-1.734764 1.396826,-3.131075 3.131592,-3.131075 h 4.626591 v -3.441134 z m 25.421704,0 v 3.441134 h 4.627107 c 1.734765,0 3.131075,1.396311 3.131075,3.131075 v 4.627108 h 3.441134 v -5.808431 c 0,-2.986481 -2.404404,-5.390886 -5.390885,-5.390886 z m -30.81259,30.812073 v 5.808431 c 0,2.986482 2.404404,5.390886 5.390886,5.390886 h 5.808431 v -3.440617 h -4.626591 c -1.734766,0 -3.131592,-1.396829 -3.131592,-3.131592 v -4.627108 z m 38.570772,0 v 4.627108 c 0,1.734763 -1.39631,3.131592 -3.131075,3.131592 h -4.627107 v 3.440617 h 5.808431 c 2.986481,0 5.390885,-2.404404 5.390885,-5.390886 v -5.808431 z" />
    <path
       style="font-size:35.2778px;font-family:Planetside2;-inkscape-font-specification:Planetside2;fill:#ffffff;stroke-linejoin:bevel"
       d="M 47.049146,60.143357 V 76.386993 H 43.087284 V 52.891426 h 4.065215 l 8.078754,12.14397 8.09598,-12.14397 h 4.04799 V 76.386993 H 63.430586 V 60.143357 l -8.199333,11.541078 z"
       id="text3"
       aria-label="M" />
  </g>
</svg>
